<svg width="14" height="15" viewBox="0 0 14 15" fill="none" xmlns="http://www.w3.org/2000/svg">
<path d="M2.07109 14.6113C1.58694 15.1295 0.833807 15.1295 0.349657 14.6113C0.107582 14.3522 -2.47288e-06 14.0355 -2.45896e-06 13.69C-2.44504e-06 13.3445 0.107583 13.0278 0.349657 12.7687L5.27184 7.49999L0.349658 2.23126C0.107583 1.97214 -1.97405e-06 1.65546 -1.96013e-06 1.30997C-1.94621e-06 0.964477 0.107583 0.647792 0.349658 0.388675C0.833808 -0.129559 1.58694 -0.129559 2.07109 0.388675L6.99327 5.65737L11.9155 0.388676C12.3996 -0.129559 13.1527 -0.129559 13.6369 0.388676C14.121 0.90691 14.121 1.71302 13.6369 2.23126L8.7147 7.49999L13.6369 12.7687C14.121 13.2869 14.121 14.0931 13.6369 14.6113C13.1527 15.1295 12.3996 15.1295 11.9155 14.6113L6.99327 9.34257L2.07109 14.6113Z" fill="#121212"/>
</svg>
